<svg width="90" height="91" viewBox="0 0 90 91" fill="none" xmlns="http://www.w3.org/2000/svg">
<path d="M28.125 11.75H18.75C14.6062 11.75 11.25 15.1062 11.25 19.25V28.625" stroke="white" stroke-width="1.5" stroke-linecap="round" stroke-linejoin="round"/>
<path d="M11.25 62.375V71.75C11.25 75.8938 14.6062 79.25 18.75 79.25H28.125" stroke="white" stroke-width="1.5" stroke-linecap="round" stroke-linejoin="round"/>
<path d="M61.875 79.25H71.25C75.3938 79.25 78.75 75.8938 78.75 71.75V62.375" stroke="white" stroke-width="1.5" stroke-linecap="round" stroke-linejoin="round"/>
<path d="M78.75 28.625V19.25C78.75 15.1062 75.3938 11.75 71.25 11.75H61.875" stroke="white" stroke-width="1.5" stroke-linecap="round" stroke-linejoin="round"/>
<path d="M50.0137 42.9425C52.704 45.6327 52.704 49.9944 50.0137 52.6846C47.3235 55.3749 42.9618 55.3749 40.2716 52.6846C37.5814 49.9944 37.5814 45.6327 40.2716 42.9425C42.9618 40.2522 47.3235 40.2522 50.0137 42.9425" stroke="white" stroke-width="1.5" stroke-linecap="round" stroke-linejoin="round"/>
<path fill-rule="evenodd" clip-rule="evenodd" d="M66.0938 38.4688V59.5625C66.0938 62.15 63.9937 64.25 61.4062 64.25H28.5938C26.0063 64.25 23.9062 62.15 23.9062 59.5625V38.4688C23.9062 35.8813 26.0063 33.7812 28.5938 33.7812H33.2812L36.7088 27.9125C37.1288 27.1925 37.8975 26.75 38.7337 26.75H51.165C51.9863 26.75 52.7475 27.1813 53.175 27.8863L56.7225 33.7812H61.41C63.9938 33.7812 66.0938 35.8813 66.0938 38.4688V38.4688Z" stroke="white" stroke-width="1.5" stroke-linecap="round" stroke-linejoin="round"/>
</svg>
